<svg xmlns="http://www.w3.org/2000/svg" width="132" height="132" viewBox="0 0 132 132"><defs><style>.a{fill:#6ec1f5;}.b{fill:#ffbeaa;}.c{fill:#faa68e;}.d{fill:#ffcdbe;}.e{fill:#414952;}.f{fill:#333940;}.g{fill:#c8fffa;}.h{fill:#9bf5f0;}.i{fill:#4a7aff;}.j{fill:#2864f0;}.k{fill:#e9edf5;}.l{fill:#fff;}.m{fill:#27488f;}.n{fill:#12254c;}.o{fill:#1b3b6b;}</style></defs><g transform="translate(-1633 -204)"><g transform="translate(1633 204)"><path class="a" d="M132,66A66,66,0,1,1,66,0,66,66,0,0,1,132,66Zm0,0"/><path class="b" d="M75.926,96.33V89.719H56.074V96.33a7.129,7.129,0,0,1-4.689,6.7L20.861,114.144a65.984,65.984,0,0,0,90.279,0L80.615,103.028A7.129,7.129,0,0,1,75.926,96.33Zm0,0"/><path class="c" d="M111.139,114.144,80.615,103.028a7.129,7.129,0,0,1-4.689-6.7V89.719H65.889V132H66A65.764,65.764,0,0,0,111.139,114.144Zm0,0"/><path class="b" d="M99.619,61.85a8.526,8.526,0,1,1-8.526-8.526A8.526,8.526,0,0,1,99.619,61.85Zm0,0"/><path class="b" d="M49.432,61.85a8.526,8.526,0,1,1-8.526-8.526A8.527,8.527,0,0,1,49.432,61.85Zm0,0"/><path class="d" d="M77.352,93.77l-5.693,2.925a12.383,12.383,0,0,1-11.317,0L54.648,93.77A25.3,25.3,0,0,1,40.907,71.262V49.071a25.093,25.093,0,1,1,50.187,0V71.262A25.3,25.3,0,0,1,77.352,93.77Zm0,0"/><path class="b" d="M66,23.977h-.111V98.059a12.375,12.375,0,0,0,5.77-1.365l5.693-2.925A25.3,25.3,0,0,0,91.093,71.262V49.07A25.093,25.093,0,0,0,66,23.977Zm0,0"/><path class="e" d="M33.516,21.055V43.1a14.7,14.7,0,0,0,4.77,10.853V66.387a5.156,5.156,0,0,0,5.156,5.156V57.028a14.722,14.722,0,0,0,4.813.808H61.488A14.739,14.739,0,0,0,76.227,43.1V23.632a2.579,2.579,0,0,0-2.578-2.578H33.516Zm0,0"/><path class="f" d="M81.02,21.055h-2.6a2.876,2.876,0,0,0-2.473,1.41,2.575,2.575,0,0,0-2.3-1.41h-7.76V57.167a14.769,14.769,0,0,0,9.736-9.888A11.97,11.97,0,0,0,87.508,57.837c.354,0,.7-.019,1.05-.049V71.543a5.156,5.156,0,0,0,5.156-5.156V56.1a11.963,11.963,0,0,0,5.763-10.237V39.512A18.457,18.457,0,0,0,81.02,21.055Zm0,0"/><path class="g" d="M85.852,103.9l-19.937,9.625L46.148,103.9l-26.069,9.5a65.99,65.99,0,0,0,91.367.459Zm0,0"/><path class="h" d="M66,132a65.774,65.774,0,0,0,45.446-18.141L85.852,103.9l-19.937,9.625Zm0,0"/><path class="i" d="M70.146,124.567H61.854L59.276,113.7H72.724Zm0,0"/><path class="j" d="M60.875,131.8q2.538.2,5.125.2t5.125-.2l-.979-7.236H61.853Zm0,0"/><path class="k" d="M80.007,100.977,66.086,113.523l6.961,9.626L85.852,103.9Zm0,0"/><path class="l" d="M51.993,100.977l13.922,12.546-6.961,9.626L46.148,103.9Zm0,0"/><path class="m" d="M111.681,113.634,85.852,103.9l-9.039,27.215A65.817,65.817,0,0,0,111.681,113.634Zm0,0"/><path class="n" d="M76.813,131.114a65.638,65.638,0,0,0,9.861-2.421l-.823-4.127,6.565-1.976V106.373L85.852,103.9Zm0,0"/><path class="m" d="M20.079,113.4l26.069-9.5,9.039,27.215A65.873,65.873,0,0,1,20.079,113.4Zm0,0"/><path class="o" d="M55.187,131.114a65.638,65.638,0,0,1-9.861-2.421l.823-4.127-6.565-1.976V106.373l6.565-2.474Zm0,0"/></g></g></svg>